# xmcd CD database file
# Copyright (C) 1993-1998 Ti Kan
# 
# Track frame offsets:
#     150
#     20372
#     38982
#     59357
#     79842
#     102215
#     122480
#     140467
#     154750
#     172875
#     194622
# 
# Disc length: 2828 seconds
# 
# Revision: 1
# Processed by: cddbd v1.4b41PL1 Copyright (c) Steve Scherf et al.
# Submitted via: DiscPlay 4.0.4
# 
DISCID=8b0b0a0b
DTITLE=Rick Parker - Wicked World
DYEAR=1900
DGENRE=
TTITLE0=Salesgirl Blues
TTITLE1=Amaze Me
TTITLE2=Temptation
TTITLE3=Cause You're Mine
TTITLE4=Still With Me
TTITLE5=Wicked World
TTITLE6=Sally's House
TTITLE7=Love Yourself
TTITLE8=Sugar Star
TTITLE9=Moonlight Parade
TTITLE10=Little Storm
EXTD=
EXTT0=
EXTT1=
EXTT2=
EXTT3=
EXTT4=
EXTT5=
EXTT6=
EXTT7=
EXTT8=
EXTT9=
EXTT10=
PLAYORDER=
